<svg width="21" height="20" viewBox="0 0 21 20" fill="none" xmlns="http://www.w3.org/2000/svg">
<path d="M4.61899 20H15.4029C17.9545 20 20.0219 17.9233 20.0219 15.381V8.60151C20.0219 7.2512 19.1558 5.59358 18.0476 4.82064L12.2925 0.788336C10.728 -0.310537 8.31605 -0.254662 6.80743 0.918711L1.788 4.82996C0.782249 5.61221 0 7.20464 0 8.47114V15.3717C0 17.9233 2.06737 20 4.61899 20Z" fill="#969696"/>
<path d="M10.0109 16.275C9.62911 16.275 9.31248 15.9583 9.31248 15.5765V12.7828C9.31248 12.401 9.62911 12.0844 10.0109 12.0844C10.3927 12.0844 10.7094 12.401 10.7094 12.7828V15.5765C10.7094 15.9583 10.3927 16.275 10.0109 16.275Z" fill="white"/>
</svg>
