<svg width="14" height="16" viewBox="0 0 14 16" fill="none" xmlns="http://www.w3.org/2000/svg">
<path d="M6.99639 0C5.5297 0 4.12307 0.574674 3.08596 1.5976C2.04885 2.62053 1.46621 4.00791 1.46621 5.45455V9.70909L0.242196 11.5273C0.0954852 11.7504 0.012269 12.0083 0.0012557 12.274C-0.00975756 12.5397 0.0518371 12.8034 0.179594 13.0376C0.307351 13.2718 0.496574 13.4678 0.727461 13.6051C0.958348 13.7424 1.22241 13.816 1.49202 13.8182H12.5008C12.7721 13.8173 13.0382 13.744 13.2707 13.6062C13.5033 13.4683 13.6937 13.2709 13.8218 13.035C13.9499 12.7991 14.0109 12.5333 13.9984 12.266C13.9859 11.9986 13.9002 11.7396 13.7506 11.5164L12.5266 9.70909V5.45455C12.5266 4.00791 11.9439 2.62053 10.9068 1.5976C9.86971 0.574674 8.46309 0 6.99639 0Z" fill="#212121"/>
<path d="M6.99637 16C7.45338 15.9994 7.89901 15.8593 8.27201 15.5989C8.64501 15.3384 8.92706 14.9704 9.0794 14.5454H4.91333C5.06567 14.9704 5.34772 15.3384 5.72072 15.5989C6.09372 15.8593 6.53935 15.9994 6.99637 16Z" fill="#212121"/>
</svg>
