<svg width="375" height="499" viewBox="0 0 375 499" fill="none" xmlns="http://www.w3.org/2000/svg">
<mask id="mask0_550_951" style="mask-type:alpha" maskUnits="userSpaceOnUse" x="0" y="0" width="375" height="499">
<rect width="375" height="499" fill="#D9D9D9"/>
</mask>
<g mask="url(#mask0_550_951)">
<path opacity="0.4" fill-rule="evenodd" clip-rule="evenodd" d="M678.072 450H152.255C151.04 450 149.945 449.267 149.481 448.144L49.1969 205.089C48.7548 204.017 48.9694 202.787 49.7481 201.929L200.285 35.9843C200.854 35.3575 201.661 35 202.507 35H632.477C633.332 35 634.147 35.3649 634.716 36.0031L780.626 199.601C781.389 200.457 781.598 201.672 781.164 202.733L680.849 448.135C680.388 449.263 679.29 450 678.072 450ZM152.255 452C150.23 452 148.405 450.779 147.633 448.907L47.348 205.852C46.6113 204.066 46.969 202.016 48.2668 200.585L198.804 34.6406C199.752 33.5958 201.097 33 202.507 33H632.477C633.902 33 635.26 33.6082 636.208 34.6719L782.119 198.27C783.39 199.696 783.738 201.722 783.015 203.49L682.7 448.892C681.932 450.772 680.103 452 678.072 452H152.255ZM625.371 408.997H204.955C203.739 408.997 202.644 408.263 202.181 407.138L122.228 212.829C121.788 211.76 122.002 210.533 122.778 209.675L242.814 76.9904C243.383 76.3617 244.191 76.0031 245.039 76.0031H589.02C589.877 76.0031 590.693 76.3692 591.262 77.0093L707.596 207.803C708.356 208.658 708.564 209.87 708.132 210.929L628.149 407.129C627.688 408.259 626.59 408.997 625.371 408.997ZM204.955 410.997C202.929 410.997 201.103 409.774 200.332 407.9L120.379 213.59C119.645 211.808 120.002 209.763 121.295 208.333L241.331 75.6487C242.279 74.6009 243.626 74.0031 245.039 74.0031H589.02C590.448 74.0031 591.808 74.6133 592.756 75.6801L709.09 206.474C710.357 207.898 710.704 209.919 709.984 211.684L630.001 407.884C629.234 409.767 627.403 410.997 625.371 410.997H204.955ZM258.37 367.994H577.081C578.302 367.994 579.401 367.254 579.861 366.123L640.227 217.587C640.656 216.53 640.449 215.321 639.692 214.467L551.896 115.453C551.326 114.811 550.509 114.443 549.651 114.443H288.642C287.792 114.443 286.983 114.803 286.414 115.434L195.807 215.898C195.034 216.755 194.821 217.978 195.259 219.046L255.595 366.132C256.057 367.258 257.153 367.994 258.37 367.994ZM253.744 366.891C254.514 368.768 256.342 369.994 258.37 369.994H577.081C579.116 369.994 580.947 368.761 581.713 366.876L642.079 218.34C642.795 216.578 642.45 214.563 641.189 213.14L553.392 114.126C552.443 113.056 551.081 112.443 549.651 112.443H288.642C287.226 112.443 285.877 113.044 284.929 114.095L194.322 214.559C193.034 215.986 192.679 218.026 193.409 219.805L253.744 366.891Z" fill="url(#paint0_linear_550_951)"/>
</g>
<defs>
<linearGradient id="paint0_linear_550_951" x1="339.5" y1="460" x2="449.909" y2="10.6132" gradientUnits="userSpaceOnUse">
<stop stop-color="white"/>
<stop offset="1" stop-color="white" stop-opacity="0"/>
</linearGradient>
</defs>
</svg>
