<svg width="17" height="20" viewBox="0 0 17 20" fill="none" xmlns="http://www.w3.org/2000/svg">
<path fill-rule="evenodd" clip-rule="evenodd" d="M13.8987 16.6949L16.3137 19.1099C16.366 19.1561 16.4087 19.2122 16.4393 19.275C16.47 19.3377 16.4879 19.4059 16.492 19.4756C16.4962 19.5453 16.4866 19.6151 16.4637 19.6811C16.4408 19.747 16.4051 19.8078 16.3587 19.8599C16.2635 19.9517 16.1359 20.002 16.0037 19.9999C15.858 19.9876 15.7215 19.9238 15.6187 19.8199L13.2037 17.4099C13.1513 17.3637 13.1086 17.3077 13.078 17.2449C13.0474 17.1822 13.0295 17.114 13.0253 17.0443C13.0211 16.9746 13.0308 16.9048 13.0537 16.8388C13.0765 16.7729 13.1122 16.7121 13.1587 16.6599C13.2481 16.5633 13.3721 16.5058 13.5037 16.4999C13.6478 16.5085 13.7835 16.571 13.8837 16.6749L13.8987 16.6949ZM13.3987 19.0049L12.4587 18.0649C12.2395 17.846 12.0934 17.5646 12.0406 17.2593C11.9877 16.954 12.0308 16.6398 12.1637 16.3599L11.6637 15.86C10.6706 16.6721 9.40341 17.0715 8.12414 16.9755C6.84486 16.8795 5.65142 16.2955 4.7907 15.3442C3.92998 14.3929 3.46784 13.1472 3.49986 11.8647C3.53189 10.5822 4.05564 9.36115 4.96276 8.45402C5.86989 7.54689 7.09099 7.02314 8.37347 6.99112C9.65594 6.95909 10.9017 7.42124 11.8529 8.28196C12.8042 9.14268 13.3883 10.3361 13.4843 11.6154C13.5803 12.8947 13.1809 14.1619 12.3687 15.155L12.8687 15.655C13.0657 15.5553 13.2829 15.5023 13.5037 15.5C13.9014 15.5003 14.2827 15.6586 14.5637 15.9399L16.0637 17.4399C16.3071 17.6781 16.4623 17.9919 16.5037 18.3299C16.8275 17.9628 17.0054 17.4895 17.0037 16.9999V16.5999C17.0087 16.5167 17.0087 16.4332 17.0037 16.3499L15.5037 4.44499C15.4901 4.32213 15.4315 4.20866 15.3391 4.12648C15.2468 4.0443 15.1273 3.99924 15.0037 3.99999H12.5037V6.49998C12.5037 6.63259 12.451 6.75976 12.3572 6.85353C12.2635 6.9473 12.1363 6.99998 12.0037 6.99998C11.8711 6.99998 11.7439 6.9473 11.6501 6.85353C11.5564 6.75976 11.5037 6.63259 11.5037 6.49998V2.49999C11.5037 1.83695 11.2403 1.20107 10.7715 0.732231C10.3026 0.263391 9.66674 0 9.0037 0H8.00371C7.34067 0 6.70478 0.263391 6.23595 0.732231C5.76711 1.20107 5.50372 1.83695 5.50372 2.49999V6.49998C5.50372 6.63259 5.45104 6.75976 5.35727 6.85353C5.2635 6.9473 5.13632 6.99998 5.00372 6.99998C4.87111 6.99998 4.74393 6.9473 4.65016 6.85353C4.5564 6.75976 4.50372 6.63259 4.50372 6.49998V3.99999H2.00373C1.88089 3.9991 1.76202 4.04346 1.6698 4.12462C1.57758 4.20577 1.51847 4.31803 1.50373 4.43999L0.00373243 16.3499C-0.00124414 16.4332 -0.00124414 16.5167 0.00373243 16.5999V16.9999C0.00373243 17.5304 0.214445 18.0391 0.589517 18.4142C0.964588 18.7892 1.47329 18.9999 2.00373 18.9999L13.3987 19.0049ZM8.50371 7.99997C9.29483 7.99997 10.0682 8.23457 10.726 8.67409C11.3838 9.11362 11.8965 9.73833 12.1992 10.4692C12.502 11.2001 12.5812 12.0044 12.4268 12.7803C12.2725 13.5562 11.8915 14.269 11.3321 14.8284C10.7727 15.3878 10.06 15.7688 9.28406 15.9231C8.50814 16.0774 7.70388 15.9982 6.97298 15.6955C6.24207 15.3927 5.61736 14.88 5.17784 14.2222C4.73831 13.5644 4.50372 12.7911 4.50372 12C4.50372 10.9391 4.92514 9.92169 5.67529 9.17154C6.42543 8.4214 7.44284 7.99997 8.50371 7.99997ZM6.50371 13.5H9.0037C9.13631 13.5 9.26349 13.4473 9.35726 13.3535C9.45103 13.2597 9.5037 13.1326 9.5037 13C9.5037 12.8674 9.45103 12.7402 9.35726 12.6464C9.26349 12.5526 9.13631 12.5 9.0037 12.5H6.50371C6.3711 12.5 6.24393 12.5526 6.15016 12.6464C6.05639 12.7402 6.00371 12.8674 6.00371 13C6.00371 13.1326 6.05639 13.2597 6.15016 13.3535C6.24393 13.4473 6.3711 13.5 6.50371 13.5ZM6.50371 11.5H10.5037C10.6363 11.5 10.7635 11.4473 10.8573 11.3535C10.951 11.2598 11.0037 11.1326 11.0037 11C11.0037 10.8674 10.951 10.7402 10.8573 10.6464C10.7635 10.5526 10.6363 10.5 10.5037 10.5H6.50371C6.3711 10.5 6.24393 10.5526 6.15016 10.6464C6.05639 10.7402 6.00371 10.8674 6.00371 11C6.00371 11.1326 6.05639 11.2598 6.15016 11.3535C6.24393 11.4473 6.3711 11.5 6.50371 11.5ZM10.5037 3.99999V2.49999C10.5037 2.10217 10.3457 1.72064 10.0644 1.43934C9.78306 1.15803 9.40153 0.999997 9.0037 0.999997H8.00371C7.60588 0.999997 7.22435 1.15803 6.94305 1.43934C6.66175 1.72064 6.50371 2.10217 6.50371 2.49999V3.99999H10.5037Z" fill="#969696"/>
</svg>
