<svg width="244" height="432" viewBox="0 0 244 432" fill="none" xmlns="http://www.w3.org/2000/svg">
<path opacity="0.9" fill-rule="evenodd" clip-rule="evenodd" d="M649.949 3H108.334C107.524 3 106.794 3.48848 106.485 4.23718L3.15129 254.682C2.85659 255.396 2.99966 256.216 3.51879 256.788L158.629 427.774C159.008 428.192 159.546 428.43 160.111 428.43H602.968C603.538 428.43 604.081 428.187 604.461 427.762L754.806 259.191C755.314 258.621 755.453 257.811 755.164 257.103L651.8 4.24323C651.493 3.49131 650.761 3 649.949 3ZM108.334 0C106.309 0 104.484 1.2212 103.711 3.09295L0.37807 253.538C-0.358664 255.323 -0.000995285 257.373 1.29683 258.804L156.407 429.79C157.355 430.835 158.7 431.43 160.111 431.43H602.968C604.393 431.43 605.751 430.822 606.7 429.758L757.044 261.188C758.316 259.762 758.664 257.737 757.941 255.968L654.577 3.10807C653.809 1.22829 651.98 0 649.949 0H108.334ZM595.685 45.2194H162.598C161.787 45.2194 161.057 45.7087 160.748 46.4583L78.3499 246.711C78.0566 247.424 78.1991 248.242 78.7163 248.813L202.421 385.553C202.8 385.972 203.339 386.211 203.904 386.211H558.223C558.794 386.211 559.338 385.967 559.717 385.54L679.608 250.747C680.115 250.178 680.253 249.369 679.966 248.663L597.537 46.4644C597.23 45.7115 596.498 45.2194 595.685 45.2194ZM162.598 42.2194C160.571 42.2194 158.745 43.4427 157.974 45.3168L75.5756 245.569C74.8422 247.351 75.1986 249.397 76.4916 250.826L200.196 387.565C201.144 388.613 202.491 389.211 203.904 389.211H558.223C559.65 389.211 561.01 388.601 561.959 387.534L681.849 252.741C683.116 251.317 683.463 249.296 682.744 247.531L600.315 45.3319C599.547 43.4498 597.717 42.2194 595.685 42.2194H162.598ZM217.597 87.4388H545.963C546.776 87.4388 547.509 87.9319 547.815 88.6858L610.045 241.806C610.331 242.511 610.193 243.317 609.688 243.886L519.182 345.957C518.802 346.385 518.258 346.63 517.685 346.63H248.8C248.234 346.63 247.694 346.39 247.315 345.969L153.913 242.407C153.398 241.836 153.256 241.02 153.548 240.308L215.747 88.6797C216.055 87.929 216.786 87.4388 217.597 87.4388ZM212.971 87.5412C213.741 85.6644 215.569 84.4388 217.597 84.4388H545.963C547.997 84.4388 549.829 85.6715 550.595 87.5563L612.824 240.677C613.54 242.439 613.195 244.454 611.933 245.877L521.427 347.947C520.478 349.017 519.116 349.63 517.685 349.63H248.8C247.385 349.63 246.035 349.03 245.087 347.979L151.685 244.416C150.398 242.988 150.043 240.949 150.772 239.17L212.971 87.5412Z" fill="url(#paint0_linear_550_941)"/>
<defs>
<linearGradient id="paint0_linear_550_941" x1="379.156" y1="-882.727" x2="379.156" y2="431.43" gradientUnits="userSpaceOnUse">
<stop stop-color="#F3CF0C"/>
<stop offset="1" stop-color="#F3CF0C" stop-opacity="0"/>
</linearGradient>
</defs>
</svg>
