<svg width="24" height="24" viewBox="0 0 24 24" fill="none" xmlns="http://www.w3.org/2000/svg">
<path d="M11.6249 19.3127C7.38738 19.3127 3.93738 15.8627 3.93738 11.6252C3.93738 7.38768 7.38738 3.93768 11.6249 3.93768C15.8624 3.93768 19.3124 7.38768 19.3124 11.6252C19.3124 15.8627 15.8624 19.3127 11.6249 19.3127ZM11.6249 5.06268C8.00238 5.06268 5.06238 8.01018 5.06238 11.6252C5.06238 15.2402 8.00238 18.1877 11.6249 18.1877C15.2474 18.1877 18.1874 15.2402 18.1874 11.6252C18.1874 8.01018 15.2474 5.06268 11.6249 5.06268Z" fill="#212121" stroke="#212121"/>
<path d="M19.5 20.0624C19.3575 20.0624 19.215 20.0099 19.1025 19.8974L17.6025 18.3974C17.385 18.1799 17.385 17.8199 17.6025 17.6024C17.82 17.3849 18.18 17.3849 18.3975 17.6024L19.8975 19.1024C20.115 19.3199 20.115 19.6799 19.8975 19.8974C19.785 20.0099 19.6425 20.0624 19.5 20.0624Z" fill="#212121" stroke="#212121"/>
</svg>
