<svg width="21" height="21" viewBox="0 0 21 21" fill="none" xmlns="http://www.w3.org/2000/svg">
<path d="M17.5988 20.25H2.90116C1.11512 20.25 0.25 19.3383 0.25 17.4779V13.7197C0.25 11.85 1.11512 10.9476 2.90116 10.9476H17.5988C19.3849 10.9476 20.25 11.8593 20.25 13.7197V17.4779C20.25 19.3383 19.3849 20.25 17.5988 20.25Z" fill="#212121"/>
<path d="M11.0872 9.55233H2.90116C1.11512 9.55233 0.25 8.6407 0.25 6.78023V3.02209C0.25 1.15233 1.11512 0.25 2.90116 0.25H11.0872C12.8733 0.25 13.7384 1.16163 13.7384 3.02209V6.78023C13.7384 8.6407 12.8733 9.55233 11.0872 9.55233Z" fill="#212121"/>
</svg>
