<svg width="20" height="20" viewBox="0 0 20 20" fill="none" xmlns="http://www.w3.org/2000/svg">
<path d="M3.48837 8.83721H5.34884C7.6 8.83721 8.83721 7.6 8.83721 5.34884V3.48837C8.83721 1.23721 7.6 0 5.34884 0H3.48837C1.23721 0 0 1.23721 0 3.48837V5.34884C0 7.6 1.23721 8.83721 3.48837 8.83721Z" fill="#212121"/>
<path d="M14.651 8.83721H16.5114C18.7626 8.83721 19.9998 7.6 19.9998 5.34884V3.48837C19.9998 1.23721 18.7626 0 16.5114 0H14.651C12.3998 0 11.1626 1.23721 11.1626 3.48837V5.34884C11.1626 7.6 12.3998 8.83721 14.651 8.83721Z" fill="#212121"/>
<path d="M16.5114 20.0001H14.651C12.3998 20.0001 11.1626 18.7628 11.1626 16.5117V14.6512C11.1626 12.4001 12.3998 11.1628 14.651 11.1628H16.5114C18.7626 11.1628 19.9998 12.4001 19.9998 14.6512V16.5117C19.9998 18.7628 18.7626 20.0001 16.5114 20.0001Z" fill="#212121"/>
<path d="M3.48837 20.0001H5.34884C7.6 20.0001 8.83721 18.7628 8.83721 16.5117V14.6512C8.83721 12.4001 7.6 11.1628 5.34884 11.1628H3.48837C1.23721 11.1628 0 12.4001 0 14.6512V16.5117C0 18.7628 1.23721 20.0001 3.48837 20.0001Z" fill="#212121"/>
</svg>
