<svg width="20" height="20" viewBox="0 0 20 20" fill="none" xmlns="http://www.w3.org/2000/svg">
<path d="M3.48837 8.83721H5.34884C7.6 8.83721 8.83721 7.6 8.83721 5.34884V3.48837C8.83721 1.23721 7.6 0 5.34884 0H3.48837C1.23721 0 0 1.23721 0 3.48837V5.34884C0 7.6 1.23721 8.83721 3.48837 8.83721Z" fill="#969696"/>
<path d="M14.6512 8.83721H16.5117C18.7628 8.83721 20.0001 7.6 20.0001 5.34884V3.48837C20.0001 1.23721 18.7628 0 16.5117 0H14.6512C12.4001 0 11.1628 1.23721 11.1628 3.48837V5.34884C11.1628 7.6 12.4001 8.83721 14.6512 8.83721Z" fill="#969696"/>
<path d="M16.5117 20.0001H14.6512C12.4001 20.0001 11.1628 18.7628 11.1628 16.5117V14.6512C11.1628 12.4001 12.4001 11.1628 14.6512 11.1628H16.5117C18.7628 11.1628 20.0001 12.4001 20.0001 14.6512V16.5117C20.0001 18.7628 18.7628 20.0001 16.5117 20.0001Z" fill="#969696"/>
<path d="M3.48837 20.0001H5.34884C7.6 20.0001 8.83721 18.7628 8.83721 16.5117V14.6512C8.83721 12.4001 7.6 11.1628 5.34884 11.1628H3.48837C1.23721 11.1628 0 12.4001 0 14.6512V16.5117C0 18.7628 1.23721 20.0001 3.48837 20.0001Z" fill="#969696"/>
</svg>
