<svg width="72" height="74" viewBox="0 0 72 74" fill="none" xmlns="http://www.w3.org/2000/svg">
<path d="M36 2C16.1347 2 0 18.1347 0 38C0 38.7461 5.69101e-06 39.5855 0.0932699 40.3316C1.30571 59.171 16.8808 74 36 74C55.1192 74 70.6943 59.0777 71.9067 40.3316C72 39.5855 72 38.8394 72 38C72 18.1347 55.8653 2 36 2Z" fill="white"/>
<path d="M36 2C16.1347 2 0 18.1347 0 38C0 38.7461 5.69101e-06 39.5855 0.0932699 40.3316C1.30571 59.171 16.8808 74 36 74C55.1192 74 70.6943 59.0777 71.9067 40.3316C72 39.5855 72 38.8394 72 38C72 18.1347 55.8653 2 36 2Z" fill="url(#paint0_linear_166_61)"/>
<path d="M1.09121 40.2674L1.08928 40.2374L1.08555 40.2076C1.00143 39.5346 1 38.7599 1 38C1 18.687 16.687 3 36 3C55.313 3 71 18.687 71 38C71 38.8514 70.9987 39.534 70.9145 40.2076L70.9108 40.2372L70.9088 40.2671C69.73 58.4933 54.5857 73 36 73C17.4124 73 2.27004 58.5847 1.09121 40.2674Z" stroke="white" stroke-opacity="0.3" stroke-width="2"/>
<path d="M21.7499 45.5001C20.5093 45.5001 19.4999 46.5094 19.4999 47.7501C19.4999 48.9907 20.5093 50.0001 21.7499 50.0001C22.9906 50.0001 23.9999 48.9907 23.9999 47.7501C23.9999 46.5094 22.9906 45.5001 21.7499 45.5001ZM21.7499 48.5001C21.3364 48.5001 20.9999 48.1636 20.9999 47.7501C20.9999 47.3365 21.3364 47.0001 21.7499 47.0001C22.1635 47.0001 22.4999 47.3365 22.4999 47.7501C22.4999 48.1636 22.1635 48.5001 21.7499 48.5001Z" fill="white"/>
<path d="M50.2501 45.5001C49.0094 45.5001 48.0001 46.5094 48.0001 47.7501C48.0001 48.9907 49.0094 50.0001 50.2501 50.0001C51.4908 50.0001 52.5001 48.9907 52.5001 47.7501C52.5001 46.5094 51.4908 45.5001 50.2501 45.5001ZM50.2501 48.5001C49.8366 48.5001 49.5001 48.1636 49.5001 47.7501C49.5001 47.3365 49.8366 47.0001 50.2501 47.0001C50.6637 47.0001 51.0001 47.3365 51.0001 47.7501C51.0001 48.1636 50.6637 48.5001 50.2501 48.5001Z" fill="white"/>
<path d="M59.25 45.5V40.3717C59.25 39.0783 58.4257 37.9346 57.1987 37.5256L54.5672 36.6485L52.2622 30.8858C51.8039 29.7402 50.7106 29 49.4768 29H42.75V25.25C42.75 24.0093 41.7407 23 40.5 23H15C13.7593 23 12.75 24.0093 12.75 25.25V45.5055C12.3288 45.5524 12 45.9102 12 46.3437V47.75C12 48.9907 13.0093 50 14.25 50H17.0076C18.9076 53.9885 24.5871 53.9997 26.4923 50H45.5076C47.4076 53.9885 53.0871 53.9997 54.9923 50H57.75C58.9907 50 60 48.9907 60 47.75V46.25C60 45.8357 59.6642 45.5 59.25 45.5ZM49.4767 30.5C50.0936 30.5 50.6403 30.8701 50.8694 31.4429L53.3036 37.5286C53.3856 37.7335 53.5536 37.8918 53.7628 37.9616L56.7243 38.9487C57.3378 39.1532 57.7499 39.7251 57.7499 40.3718V42.5001H56.9999C56.5857 42.5001 56.2499 42.8359 56.2499 43.2501C56.2499 43.6643 56.5857 44.0001 56.9999 44.0001H57.7499V45.5001H54.9923C53.0923 41.5116 47.4128 41.5004 45.5076 45.5001H42.75V30.5001L49.4767 30.5ZM15 24.5H40.5C40.9135 24.5 41.25 24.8365 41.25 25.25V45.5H26.4924C24.5924 41.5115 18.9129 41.5003 17.0077 45.5H14.25V25.25C14.25 24.8365 14.5865 24.5 15 24.5ZM14.25 48.5C13.8365 48.5 13.5 48.1635 13.5 47.75V47H16.5545C16.482 47.5043 16.4819 47.9948 16.5545 48.5H14.25ZM21.75 51.5C20.1797 51.5 18.8326 50.5294 18.2749 49.1569C18.261 49.0451 18.2225 48.941 18.1649 48.85C17.9451 48.1349 17.9448 47.3659 18.1649 46.6499C18.2225 46.5589 18.261 46.4549 18.2749 46.343C18.8326 44.9705 20.1797 43.9999 21.75 43.9999C23.3203 43.9999 24.6674 44.9705 25.2251 46.343C25.239 46.4548 25.2775 46.5589 25.3351 46.6499C25.5549 47.3649 25.5552 48.134 25.3351 48.85C25.2775 48.941 25.239 49.045 25.2251 49.1569C24.6674 50.5293 23.3203 51.5 21.75 51.5ZM26.9455 48.5C27.018 47.9957 27.0181 47.5052 26.9455 47H45.0544C44.9819 47.5043 44.9818 47.9948 45.0544 48.5H26.9455ZM50.25 51.5C48.6797 51.5 47.3326 50.5294 46.7749 49.1569C46.761 49.0451 46.7225 48.941 46.6649 48.85C46.4451 48.1349 46.4448 47.3659 46.6649 46.6499C46.7225 46.5589 46.761 46.4549 46.7749 46.343C47.3326 44.9705 48.6797 43.9999 50.25 43.9999C51.8203 43.9999 53.1674 44.9705 53.7251 46.343C53.739 46.4548 53.7775 46.5589 53.8351 46.6499C54.0549 47.3649 54.0552 48.134 53.8351 48.85C53.7775 48.941 53.739 49.045 53.7251 49.1569C53.1674 50.5293 51.8203 51.5 50.25 51.5ZM58.5 47.75C58.5 48.1635 58.1635 48.5 57.75 48.5H55.4455C55.518 47.9957 55.5181 47.5052 55.4455 47H58.5V47.75Z" fill="white"/>
<path d="M45 38H50.25C50.7612 38 51.1234 37.4982 50.9615 37.0128L49.4615 32.5128C49.3594 32.2065 49.0728 32 48.75 32H45C44.5858 32 44.25 32.3358 44.25 32.75V37.25C44.25 37.6642 44.5858 38 45 38ZM45.75 33.5H48.2094L49.2095 36.5H45.75V33.5Z" fill="white"/>
<path d="M18.7499 38.75H25.4999V40.25C25.4999 40.6642 25.8358 41 26.2499 41H36.7499C37.1641 41 37.4999 40.6642 37.4999 40.25V29.75C37.4999 29.3358 37.1641 29 36.7499 29C34.5596 29 28.4395 29 26.2499 29C25.8358 29 25.4999 29.3358 25.4999 29.75V31.25H23.2499C22.8358 31.25 22.4999 31.5858 22.4999 32C22.4999 32.4142 22.8358 32.75 23.2499 32.75H25.4999V34.25H21.7499C21.3358 34.25 20.9999 34.5858 20.9999 35C20.9999 35.4142 21.3358 35.75 21.7499 35.75H25.4999V37.25H18.7499C18.3358 37.25 17.9999 37.5858 17.9999 38C17.9999 38.4142 18.3358 38.75 18.7499 38.75ZM32.2499 30.5V32H30.7499V30.5H32.2499ZM26.9999 30.5H29.2499V32.75C29.2499 33.1642 29.5858 33.5 29.9999 33.5H32.9999C33.4141 33.5 33.7499 33.1642 33.7499 32.75V30.5H35.9999V39.5H26.9999V30.5Z" fill="white"/>
<circle cx="55" cy="9" r="8" fill="#F58179" stroke="#FFFBE2" stroke-width="2"/>
<defs>
<linearGradient id="paint0_linear_166_61" x1="83.1" y1="-79" x2="71.4737" y2="102.37" gradientUnits="userSpaceOnUse">
<stop stop-color="#DA9E19"/>
<stop offset="1" stop-color="#FFDD00" stop-opacity="0.75"/>
</linearGradient>
</defs>
</svg>
